<svg id="Ebene_1" xmlns="http://www.w3.org/2000/svg" viewBox="0 0 267 93" enable-background="new 0 0 267 93"><style>.st0{filter:url(#Adobe_OpacityMaskFilter)}.st1{fill:#fff}.st2{mask:url(#mask-2);fill:#60125a}.st3{filter:url(#Adobe_OpacityMaskFilter_1_)}.st4{mask:url(#mask-4);fill:#60125a}.st5{filter:url(#Adobe_OpacityMaskFilter_2_)}.st6{mask:url(#mask-6);fill:#60125a}</style><g id="Page-1"><g id="Group-3"><defs><filter id="Adobe_OpacityMaskFilter" filterUnits="userSpaceOnUse" x="0" y="0" width="72.848" height="93"><feColorMatrix values="1 0 0 0 0 0 1 0 0 0 0 0 1 0 0 0 0 0 1 0"/></filter></defs><mask maskUnits="userSpaceOnUse" x="0" y="0" width="72.848" height="93" id="mask-2"><g class="st0"><path id="path-1" class="st1" d="M72.848 93H0V0h72.848z"/></g></mask><path id="Fill-1" class="st2" d="M49.325 35.24c3.51.919 6.697 2.036 9.567 3.353 2.866 1.318 5.324 3.008 7.373 5.07 2.045 2.063 3.655 4.585 4.827 7.564 1.168 2.981 1.755 6.591 1.755 10.829 0 4.356-.908 8.423-2.721 12.206-1.816 3.781-4.506 7.048-8.075 9.799-3.571 2.749-7.959 4.928-13.166 6.532C43.678 92.197 37.68 93 30.894 93c-5.616 0-10.825-.403-15.622-1.203-4.8-.804-9.891-2.175-15.272-4.127.584-7.791 2.748-15.7 6.494-23.722a55.314 55.314 0 0 0 11.761 3.868 59.7 59.7 0 0 0 12.288 1.289c1.405 0 2.866-.056 4.388-.171 1.519-.113 2.866-.37 4.037-.773 1.169-.401 2.135-.946 2.897-1.634.76-.687 1.14-1.604 1.14-2.749 0-1.489-.763-2.607-2.282-3.353-1.522-.744-3.278-1.402-5.266-1.977L23.52 55.181c-6.204-1.719-11.352-4.641-15.446-8.766-4.098-4.126-6.145-9.74-6.145-16.847 0-4.47.936-8.536 2.809-12.205 1.871-3.666 4.504-6.791 7.9-9.369 3.392-2.578 7.399-4.556 12.024-5.931C29.284.688 34.404 0 40.022 0c4.446 0 9.303.46 14.568 1.375a107.869 107.869 0 0 1 15.624 3.954c-.237 3.67-.995 7.593-2.282 11.775-1.289 4.185-2.75 7.881-4.388 11.088-3.16-1.259-6.964-2.406-11.411-3.438-4.448-1.032-8.544-1.546-12.288-1.546-5.501 0-8.249 1.491-8.249 4.468 0 1.263.641 2.235 1.93 2.923 1.287.687 2.748 1.262 4.388 1.719l11.411 2.922z"/></g><g id="Group-6" transform="translate(83)"><defs><filter id="Adobe_OpacityMaskFilter_1_" filterUnits="userSpaceOnUse" x=".297" y="0" width="76.291" height="92.829"><feColorMatrix values="1 0 0 0 0 0 1 0 0 0 0 0 1 0 0 0 0 0 1 0"/></filter></defs><mask maskUnits="userSpaceOnUse" x=".297" y="0" width="76.291" height="92.829" id="mask-4"><g class="st3"><path id="path-3" class="st1" d="M.297 0h76.291v92.829H.297z"/></g></mask><path id="Fill-4" class="st4" d="M41.031 71.512c1.036 0 2.53-.113 4.488-.344 1.955-.228 3.393-.456 4.315-.688V51.571h-9.837c-4.03 0-7.423.859-10.184 2.578-2.762 1.719-4.143 4.126-4.143 7.221 0 2.294.518 4.099 1.554 5.415a10.013 10.013 0 0 0 3.884 3.008 17.91 17.91 0 0 0 5.004 1.376c1.783.23 3.422.343 4.919.343M.297 61.886c0-5.615 1.209-10.255 3.625-13.925a27.285 27.285 0 0 1 9.321-8.767c3.798-2.176 7.997-3.695 12.6-4.555 4.6-.86 9.087-1.289 13.462-1.289h10.529c-.116-2.064-.69-3.783-1.726-5.158-1.035-1.376-2.36-2.433-3.97-3.18-1.613-.743-3.394-1.259-5.351-1.547a41.866 41.866 0 0 0-6.041-.43c-2.762 0-5.985.317-9.665.945-3.685.631-7.481 1.633-11.392 3.009a112.226 112.226 0 0 1-2.675-5.329 25.788 25.788 0 0 1-1.726-4.9 36.852 36.852 0 0 1-.864-5.156c-.172-1.776-.258-3.809-.258-6.102C11.69 3.67 17.183 2.294 22.65 1.376 28.114.46 33.033 0 37.407 0c5.981 0 11.391.717 16.224 2.149 4.833 1.435 8.945 3.639 12.341 6.619 3.394 2.981 6.012 6.79 7.853 11.431 1.839 4.642 2.762 10.172 2.762 16.59v50.368c-4.375 1.263-9.666 2.521-15.879 3.782-6.214 1.26-12.773 1.891-19.677 1.891-5.985 0-11.478-.545-16.482-1.634-5.006-1.087-9.294-2.835-12.859-5.243-3.569-2.406-6.36-5.586-8.372-9.54C1.304 72.458.297 67.618.297 61.886"/></g><g id="Group-9" transform="translate(174 2)"><defs><filter id="Adobe_OpacityMaskFilter_2_" filterUnits="userSpaceOnUse" x="-.23" y="-.029" width="92.23" height="90.753"><feColorMatrix values="1 0 0 0 0 0 1 0 0 0 0 0 1 0 0 0 0 0 1 0"/></filter></defs><mask maskUnits="userSpaceOnUse" x="-.23" y="-.029" width="92.23" height="90.753" id="mask-6"><g class="st5"><path id="path-5" class="st1" d="M92.233 90.836V.083H.003v90.753z"/></g></mask><path id="Fill-7" class="st6" d="M57.846 1.505c2.059-.453 4.575-.794 7.552-1.023 2.974-.226 5.604-.341 7.895-.341 2.974 0 5.977.115 9.011.341 3.03.229 5.462.57 7.293 1.023L65.615 42.447 92 89.359c-2.061.453-4.635.794-7.723 1.023-3.09.226-5.779.342-8.067.342-2.976 0-5.92-.116-8.838-.342-2.917-.229-5.234-.57-6.951-1.023L34.895 43.641 57.846 1.505zm-58.076 0A58.837 58.837 0 0 1 7.235.311a77.52 77.52 0 0 1 7.123-.341c2.172 0 4.518.114 7.036.341a53.01 53.01 0 0 1 7.38 1.194v87.853c-2.976.567-5.663.939-8.066 1.108-2.403.171-4.522.257-6.35.257-1.947 0-4.119-.086-6.522-.257-2.403-.17-5.092-.541-8.066-1.108V1.505z"/></g></g></svg>